<?xml version="1.0" encoding="utf-8"?>
<!-- Generator: Adobe Illustrator 21.0.2, SVG Export Plug-In . SVG Version: 6.00 Build 0)  -->
<svg version="1.1" id="Layer_1" xmlns="http://www.w3.org/2000/svg" xmlns:xlink="http://www.w3.org/1999/xlink" x="0px" y="0px"
	 viewBox="0 0 320 320" style="enable-background:new 0 0 320 320;" xml:space="preserve">
<style type="text/css">
	.st0{fill:#A2A2A2;}
</style>
<path class="st0" d="M158,268.5c-59.9,0-108.5-48.6-108.5-108.5S98.1,51.5,158,51.5c22.4,0,43.1,6.8,60.4,18.4L191,124.7
	c-8.6-8.1-20.2-13-33-13c-26.7,0-48.3,21.6-48.3,48.3s21.6,48.3,48.3,48.3h97.2H320V72.1C320,32.5,287.5,0,247.9,0H72.1
	C32.5,0,0,32.5,0,72.1v175.8C0,287.5,32.5,320,72.1,320h175.8c32.5,0,60.2-21.8,69.1-51.5H158z"/>
</svg>
